<svg width="1024" height="503" viewBox="0 0 1024 503" fill="none" xmlns="http://www.w3.org/2000/svg">
<path d="M319.869 161.878C319.869 187.996 309.123 208.218 287.632 222.541C266.562 236.864 237.907 244.026 201.667 244.026H87.2568V83.5207H198.506C242.753 83.5207 273.937 90.2611 292.057 103.742C310.598 117.223 319.869 136.601 319.869 161.878Z" fill="url(#paint0_linear)"/>
<path fill-rule="evenodd" clip-rule="evenodd" d="M866.654 495.056C859.076 500.264 850.55 502.869 841.077 502.869C831.604 502.869 823.078 500.028 815.5 494.345C807.448 488.19 802.001 480.377 799.159 470.907L684.772 108.671L570.385 470.907C567.543 480.377 562.332 488.19 554.754 494.345C546.702 500.028 537.939 502.869 528.466 502.869C528.011 502.869 527.559 502.863 527.11 502.851L527.17 503H30.3407C13.584 503 0 489.42 0 472.668V30.3317C0 13.5799 13.584 9.78382e-06 30.3407 9.78382e-06H370.41C371.347 9.78382e-06 372.273 0.0424349 373.188 0.125468C374.232 0.0424912 375.302 0.000668515 376.397 0L376.448 1.91789e-07C384.017 0.00512452 390.64 2.37267 396.317 7.10265C402.001 11.8378 406.027 17.9934 408.395 25.5695L527.756 417.637L647.827 26.9901C650.195 18.9404 654.932 12.548 662.036 7.81291C668.661 2.6097 676.23 0.0053991 684.745 2.66858e-07H684.798C693.314 0.0053991 701.12 2.6097 708.218 7.81291C714.849 12.548 719.348 18.9404 721.717 26.9901L841.788 417.637L961.148 25.5695C963.516 17.9934 967.542 11.8378 973.226 7.10265C978.904 2.37267 985.527 0.00512452 993.095 1.91789e-07L993.147 1.4165e-07C1002.61 0.00582597 1010.41 3.08363 1016.57 9.23342C1020.58 13.2449 1023.06 18.0824 1024 23.7459V35.4878C1023.65 37.706 1023.07 40.3188 1022.25 43.3262L882.995 470.907C879.206 481.324 873.759 489.373 866.654 495.056ZM29.7358 444.973C29.7358 452.977 32.4749 459.718 37.9531 465.194C43.4313 470.671 50.1737 473.409 58.1803 473.409C66.1868 473.409 72.9292 470.671 78.4074 465.194C84.307 459.718 87.2568 452.977 87.2568 444.973V298.37H218.101C247.178 298.37 268.88 305.532 283.207 319.855C297.535 333.757 306.595 349.765 310.388 367.88C314.18 385.574 316.077 404.952 316.077 426.016V444.973C316.077 453.398 318.605 460.349 323.662 465.826C329.14 470.881 336.304 473.409 345.153 473.409C353.16 473.409 359.902 470.671 365.38 465.194C370.858 459.718 373.598 452.977 373.598 444.973V415.905C373.598 387.259 367.909 358.191 356.531 328.702C345.575 298.791 324.926 279.834 294.585 271.83C321.555 262.562 341.993 247.607 355.899 226.964C370.226 205.901 377.39 182.731 377.39 157.454C377.39 119.118 363.063 88.1547 334.407 64.5635C305.752 40.9722 262.77 29.1765 205.459 29.1765H58.1803C50.1737 29.1765 43.4313 32.1254 37.9531 38.0233C32.4749 43.4998 29.7358 50.2402 29.7358 58.2444V444.973Z" fill="url(#paint1_linear)"/>
<defs>
<linearGradient id="paint0_linear" x1="0" y1="251.5" x2="1024" y2="251.5" gradientUnits="userSpaceOnUse">
<stop stop-color="#F44007"/>
<stop offset="0.513889" stop-color="#FF9800"/>
<stop offset="1" stop-color="#FFD75E"/>
</linearGradient>
<linearGradient id="paint1_linear" x1="0" y1="251.5" x2="1024" y2="251.5" gradientUnits="userSpaceOnUse">
<stop stop-color="#F44007"/>
<stop offset="0.513889" stop-color="#FF9800"/>
<stop offset="1" stop-color="#FFD75E"/>
</linearGradient>
</defs>
</svg>
